<svg width="25" height="28" viewBox="0 0 25 28" fill="none" xmlns="http://www.w3.org/2000/svg">
<path d="M7.44684 11.7063V5.76886C7.45055 4.50606 7.9535 3.29588 8.84601 2.40249C9.73851 1.50911 10.9482 1.00495 12.211 1C13.4746 1.00371 14.6853 1.50737 15.5789 2.40089C16.4724 3.29441 16.976 4.50524 16.9798 5.76886V11.7063M23.4007 22.2296L21.9645 11.5937C21.8284 10.7168 21.3792 9.91877 20.7001 9.3475C20.0209 8.77622 19.1578 8.47029 18.2705 8.48645H6.15603C5.26872 8.47029 4.4056 8.77622 3.72645 9.3475C3.04731 9.91877 2.59819 10.7168 2.46216 11.5937L1.02586 22.2296C0.958605 22.8399 1.02291 23.4576 1.21436 24.0411C1.40581 24.6245 1.71999 25.1602 2.1358 25.612C2.5516 26.0638 3.05937 26.4213 3.62492 26.6604C4.19047 26.8996 4.80069 27.0149 5.41451 26.9985H19.0262C19.6389 27.0128 20.2475 26.8961 20.8113 26.6561C21.3752 26.416 21.8812 26.0581 22.2954 25.6065C22.7097 25.1549 23.0226 24.62 23.2132 24.0376C23.4038 23.4552 23.4677 22.8387 23.4007 22.2296Z" stroke="#E95322" stroke-width="2" stroke-linecap="round" stroke-linejoin="round"/>
</svg>
