<svg width="27" height="28" viewBox="0 0 27 28" fill="none" xmlns="http://www.w3.org/2000/svg">
<path d="M20.6334 13.6935C20.8487 11.913 20.3486 10.1198 19.243 8.70765C18.1373 7.29552 16.5166 6.37988 14.7364 6.16162M25.7861 14.2473C25.9776 12.6974 25.8614 11.1249 25.4445 9.61993C25.0275 8.11494 24.3179 6.70693 23.3562 5.47649C22.3945 4.24605 21.1996 3.21734 19.8399 2.44922C18.4801 1.6811 16.9823 1.1886 15.432 1M18.8524 18.0044C18.6097 17.801 18.336 17.6379 18.0416 17.5214C16.3979 16.9144 15.051 18.2392 13.518 17.9645C11.8832 17.6588 10.5097 16.0239 9.7388 14.6549C9.29254 13.9394 9.13421 13.0813 9.29575 12.2536C9.79197 10.2909 11.3205 9.46675 10.7312 7.22491C10.2882 5.58561 8.5647 3.16658 6.84566 2.7191C3.77088 1.91718 2.12715 4.85895 1.47144 7.38878C-0.836863 16.2498 5.62285 25.678 14.67 26.8831C17.3283 27.2419 21.3734 26.9495 21.5993 23.476C21.7278 21.4823 20.567 19.6171 19.1758 18.3189L18.8524 18.0044Z" stroke="#E95322" stroke-width="2" stroke-linecap="round" stroke-linejoin="round"/>
</svg>
