<svg width="31" height="38" viewBox="0 0 31 38" fill="none" xmlns="http://www.w3.org/2000/svg">
<path d="M21.32 15.7625C22.1127 15.2447 23.0224 14.9361 23.9651 14.8655C25.5104 14.7306 27.0457 15.2185 28.2333 16.222C29.4209 17.2254 30.1637 18.6623 30.2981 20.2164C30.4151 21.5406 30.0791 22.8651 29.3459 23.9712C28.6947 24.907 27.9612 25.782 27.1543 26.5858L26.9965 26.7416M9.48516 15.7623C8.69685 15.2469 7.79263 14.9384 6.8552 14.8652C6.08966 14.7964 5.31813 14.8805 4.58496 15.1124C3.85178 15.3444 3.17141 15.7197 2.58292 16.2169C1.99443 16.7141 1.50942 17.3235 1.15577 18.0098C0.802109 18.6961 0.586774 19.4459 0.522126 20.2162C0.407951 21.538 0.737926 22.8601 1.45924 23.9709C2.13938 25.1329 3.12881 26.0807 4.31592 26.7073M17.1634 8.02466C18.9101 8.31646 20.5418 9.09072 21.8763 10.2611C23.2108 11.4315 24.1956 12.952 24.7208 14.6527M6.08435 14.6827C6.59773 13.1235 7.49235 11.7193 8.68606 10.5984C9.87978 9.47757 11.3343 8.67595 12.9162 8.26775M12.4023 10.8825L11.8431 11.4602M18.8714 13.0564L17.9947 13.938M5.85763 19.517L4.99609 20.3987M20.2166 20.7787L19.476 21.5236M12.2058 18.5745L11.4652 19.3194M27.3659 19.9578L26.8217 20.5051M14.9718 5.09072C14.3745 5.09072 13.8017 5.32916 13.3793 5.75393C12.957 6.17871 12.7197 6.75501 12.7197 7.35573C12.7242 7.58252 12.7598 7.80752 12.8255 8.02451C12.9556 8.50356 13.2396 8.92576 13.6333 9.22548C14.027 9.5252 14.5083 9.68573 15.002 9.6816C15.5993 9.6816 16.1722 9.4428 16.5945 9.01802C17.0169 8.59325 17.2541 8.01732 17.2541 7.4166C17.2623 7.11149 17.2091 6.80755 17.0977 6.52366C16.9862 6.23976 16.8189 5.98156 16.6058 5.76432C16.3926 5.54709 16.138 5.37537 15.8572 5.25959C15.5764 5.14381 15.2752 5.08652 14.9718 5.09072ZM14.9718 5.09072C14.813 4.21641 14.9352 3.3757 15.267 2.55198C15.5989 1.72826 16.1571 1.01649 16.8763 0.5M26.9965 26.7416C26.8096 28.8661 26.2343 30.9421 25.2952 32.8638C24.9654 33.7247 24.4698 34.5115 23.837 35.1793C23.2041 35.8471 22.4463 36.3826 21.6072 36.7551C19.7189 37.3364 18.131 37.5 15.7729 37.5C13.4147 37.5 11.6202 37.3747 9.6363 36.7551C8.79714 36.3826 8.03938 35.8471 7.4065 35.1793C6.77363 34.5115 6.27808 33.7247 5.94831 32.8638C4.81316 30.4933 4.2291 27.8942 4.24035 25.2631C4.25311 24.9017 4.35003 24.5482 4.52329 24.2314C4.69655 23.9145 4.94133 23.643 5.23792 23.4386C5.69014 23.2492 6.18041 23.1697 6.66891 23.2067C7.1574 23.2436 7.63033 23.3963 8.04925 23.6517C8.87733 24.1753 9.83713 24.4496 10.8152 24.4422C12.8104 24.1685 13.7626 21.6905 15.9543 21.9946C17.768 22.253 18.7354 24.1989 20.4887 24.4422C21.4712 24.4475 22.4353 24.1734 23.2698 23.6517C23.6841 23.3917 24.1549 23.2363 24.6419 23.1992C25.1288 23.1622 25.6175 23.2443 26.066 23.4386C26.3652 23.6403 26.6119 23.9114 26.7855 24.2288C26.9591 24.5462 27.0545 24.901 27.0636 25.2631C27.0622 25.7576 27.0397 26.2509 26.9965 26.7416Z" stroke="#E95322" stroke-linecap="round" stroke-linejoin="round"/>
</svg>
