<svg width="38" height="38" viewBox="0 0 38 38" fill="none" xmlns="http://www.w3.org/2000/svg">
<path d="M21.0871 36.4868C21.0871 34.0772 21.0871 29.4185 21.0871 26.5823H25.5187C25.7317 26.5823 25.936 26.4976 26.0866 26.347C26.2373 26.1964 26.3219 25.9921 26.3219 25.779V20.8711C26.3219 20.658 26.2373 20.4537 26.0866 20.3031C25.936 20.1525 25.7317 20.0679 25.5187 20.0679H21.0871C21.0871 18.1512 21.0871 18.3783 21.0871 17.1818C21.0886 16.6641 21.2953 16.1682 21.6618 15.8027C22.0284 15.4372 22.5249 15.2319 23.0426 15.2319H26.2942V10.1633C26.2928 9.78373 26.141 9.42022 25.8721 9.15235C25.6032 8.88448 25.2391 8.7341 24.8595 8.7341H20.7991C19.9458 8.7341 19.1008 8.90217 18.3125 9.22871C17.5241 9.55526 16.8078 10.0339 16.2045 10.6373C15.6011 11.2406 15.1225 11.9569 14.7959 12.7453C14.4694 13.5336 14.3013 14.3786 14.3013 15.2319C14.3013 15.2319 14.2293 16.1736 14.185 20.0679H9.89743C9.65942 20.0679 9.43117 20.1624 9.26288 20.3307C9.09458 20.499 9.00003 20.7272 9.00003 20.9652V25.6849C8.9993 25.8029 9.02201 25.9199 9.06684 26.0292C9.11168 26.1384 9.17771 26.2376 9.26118 26.3211C9.34466 26.4046 9.44389 26.4706 9.5531 26.5154C9.66231 26.5603 9.77937 26.583 9.89743 26.5823H14.1351C14.1351 29.4351 14.1351 33.5343 14.2126 36.0603M14.2237 36.0104C10.4628 34.9887 7.14352 32.7559 4.77931 29.6577C2.41511 26.5595 1.13781 22.7685 1.14505 18.8713C1.14505 14.17 3.01262 9.66126 6.33695 6.33694C9.66128 3.01261 14.17 1.14502 18.8714 1.14502C23.5727 1.14502 28.0814 3.01261 31.4058 6.33694C34.7301 9.66126 36.5977 14.17 36.5977 18.8713C36.6005 23.1909 35.026 27.3628 32.1699 30.6034C29.3139 33.8441 25.3728 35.9303 21.0871 36.4702" stroke="#E95322" stroke-width="2.29" stroke-linecap="round" stroke-linejoin="round"/>
</svg>
