<svg width="19" height="13" viewBox="0 0 19 13" fill="none" xmlns="http://www.w3.org/2000/svg">
<path d="M8.2357 3.28185H18.1434M8.2357 3.28185C8.2357 4.64982 7.12674 5.75878 5.75878 5.75878C4.39081 5.75878 3.28185 4.64982 3.28185 3.28185M8.2357 3.28185C8.2357 1.91389 7.12674 0.804932 5.75878 0.804932C4.39081 0.804932 3.28185 1.91389 3.28185 3.28185M0.804932 3.28185H3.28185M14.428 9.47416H18.1434M14.428 9.47416C14.428 10.8421 13.3191 11.9511 11.9511 11.9511C10.5831 11.9511 9.47416 10.8421 9.47416 9.47416M14.428 9.47416C14.428 8.1062 13.3191 6.99724 11.9511 6.99724C10.5831 6.99724 9.47416 8.1062 9.47416 9.47416M0.804932 9.47416H9.47416" stroke="#F5F5F5" stroke-width="1.61" stroke-linecap="round" stroke-linejoin="round"/>
</svg>
