<svg width="20" height="26" viewBox="0 0 20 26" fill="none" xmlns="http://www.w3.org/2000/svg">
<path d="M17.1955 22.2355C16.8337 21.0231 17.2571 19.7241 17.7299 18.5488C18.5305 16.6967 18.9674 14.7071 19.0167 12.689C19.0167 9.04773 17.7587 5.291 15.0577 2.77139C13.6828 1.52073 11.9137 0.794291 10.0592 0.718918C8.2047 0.643545 6.38276 1.22403 4.91153 2.35901C1.70076 4.83326 0.668838 9.00236 0.71406 12.8869V14.7509M13.9847 6.35081C12.3732 4.28894 10.1573 3.46419 7.88384 4.47038C6.09962 5.26214 4.90736 7.00235 4.29892 8.80443C3.53014 11.0725 3.88782 13.4519 3.63704 15.7942C3.50137 17.1179 3.0286 18.487 1.9926 19.3035M15.1399 8.44979C15.6483 9.79744 15.9047 11.2275 15.8964 12.6684C15.8877 14.4894 15.4659 16.2846 14.663 17.9179C14.2067 18.854 13.2447 20.5035 11.9703 19.8561C10.9301 19.3282 11.1028 18.1076 11.3988 17.1756C11.962 15.4065 12.7843 13.8766 12.8665 11.9715C12.9446 10.1859 12.3855 8.30958 10.6177 7.55906C10.1146 7.3423 9.55389 7.29962 9.02393 7.43774C8.49397 7.57587 8.02486 7.88695 7.69058 8.32195C6.19003 10.3838 7.03695 12.6684 6.34218 14.9406M9.12539 15.3035C8.44295 17.2169 7.66184 19.4973 8.30317 21.5262C9.08839 24.0004 11.9127 24.8499 14.182 24.0499M5.9393 17.6993C5.72626 18.4846 5.42125 19.2417 5.03071 19.955C4.63862 20.6712 4.07309 21.2767 3.38627 21.7159M9.76259 12.6354C9.92123 11.9366 9.96569 11.2165 9.89418 10.5034C9.98359 11.2161 9.93894 11.9392 9.76259 12.6354Z" stroke="#E95322" stroke-width="1.42515" stroke-linecap="round" stroke-linejoin="round"/>
</svg>
