<svg width="37" height="36" viewBox="0 0 37 36" fill="none" xmlns="http://www.w3.org/2000/svg">
<path d="M15.6613 27.3014C20.5291 31.0941 25.7766 32.2882 28.7412 29.836C32.6162 26.6335 31.1202 18.4215 25.3923 11.4904L24.3538 10.4152M20.3049 6.69574C15.6705 3.36972 10.8164 2.42727 8.00736 4.74679C4.13234 7.94928 5.63294 16.1613 11.3563 23.0924M25.4335 8.57145C29.4366 8.20545 32.511 9.07468 33.4809 11.1883C35.1508 14.8483 29.8804 20.837 21.7049 24.5748C13.5293 28.3125 5.55057 28.3766 3.8624 24.7212C2.17423 21.0658 7.46291 15.0725 15.6384 11.3348C16.9838 10.7178 18.3666 10.186 19.7788 9.74267M13.3967 33.8208C13.662 33.8803 13.9182 33.9352 14.1653 33.981C15.4752 34.2407 16.8111 34.3451 18.1455 34.2921C18.1455 34.2921 29.8392 35.1522 33.943 24.3415C35.5441 20.0749 35.5441 15.3726 33.943 11.106C29.8255 0.299916 18.1455 1.16002 18.1455 1.16002C18.1455 1.16002 6.45184 0.299916 2.34808 11.106C0.742372 15.3718 0.742372 20.0757 2.34808 24.3415C3.41762 27.3121 5.42083 29.8563 8.05766 31.5929C8.42823 31.8353 8.80339 32.0503 9.18311 32.2562M22.263 10.4106C22.6934 10.4354 23.1209 10.3254 23.4858 10.0957C23.8507 9.86613 24.135 9.52835 24.2989 9.12959C24.5048 8.57941 24.5048 7.97331 24.2989 7.42313C24.1142 7.04003 23.8252 6.71679 23.4651 6.4906C23.105 6.2644 22.6883 6.14446 22.263 6.14446C21.8377 6.14446 21.4211 6.2644 21.061 6.4906C20.7008 6.71679 20.4118 7.04003 20.2272 7.42313C20.0212 7.97331 20.0212 8.57941 20.2272 9.12959C20.3917 9.52794 20.676 9.86533 21.0408 10.0949C21.4056 10.3244 21.8327 10.4347 22.263 10.4106ZM11.3745 34.6993C11.8049 34.7234 12.232 34.6129 12.5968 34.3834C12.9616 34.1539 13.2459 33.8166 13.4104 33.4183C13.6164 32.8681 13.6164 32.262 13.4104 31.7118C13.2258 31.3287 12.9368 31.0055 12.5766 30.7793C12.2165 30.5531 11.7998 30.4331 11.3745 30.4331C10.9493 30.4331 10.5326 30.5531 10.1725 30.7793C9.81236 31.0055 9.52333 31.3287 9.33867 31.7118C9.13272 32.262 9.13272 32.8681 9.33867 33.4183C9.50261 33.817 9.78686 34.1547 10.1518 34.3843C10.5167 34.6139 10.9441 34.724 11.3745 34.6993Z" stroke="#E95322" stroke-width="2.28749" stroke-linecap="round" stroke-linejoin="round"/>
</svg>
