<svg width="36" height="43" viewBox="0 0 36 43" fill="none" xmlns="http://www.w3.org/2000/svg">
<path d="M2.96676 3.05527C3.98654 2.02416 5.38066 1.42923 6.84586 1.3999C11.1977 1.3999 24.0786 10.3434 32.1519 16.6902C32.8504 17.2389 33.4141 17.9343 33.8015 18.725C34.1889 19.5157 34.39 20.3816 34.39 21.2587C34.39 22.1358 34.1889 23.0017 33.8015 23.7924C33.4141 24.5831 32.8504 25.2785 32.1519 25.8272C24.0786 32.1814 11.1977 41.11 6.84586 41.11C5.38066 41.0807 3.98654 40.4858 2.96676 39.4547M2.96676 3.05527C1.94698 4.08638 1.38405 5.47026 1.40037 6.90589V35.604C1.38405 37.0397 1.94698 38.4236 2.96676 39.4547M2.96676 3.05527L16.0783 15.5722L29.1899 28.0891M2.96676 39.4547L29.1899 14.4506" stroke="#E95322" stroke-width="2.8" stroke-linecap="round" stroke-linejoin="round"/>
</svg>
