<svg width="26" height="25" viewBox="0 0 26 25" fill="none" xmlns="http://www.w3.org/2000/svg">
<path d="M4.41792 17.707V9.27178C4.4258 6.94784 5.33205 4.72139 6.93896 3.07811C8.54588 1.43482 10.723 0.508065 12.9955 0.5C15.268 0.508065 17.4452 1.43482 19.0521 3.07811C20.659 4.72139 21.5653 6.94784 21.5732 9.27178V14.3717M9.18549 6.48725C9.57252 5.80376 10.128 5.23596 10.7965 4.84045C11.465 4.44494 12.2232 4.23554 12.9955 4.23311C13.7683 4.23348 14.5273 4.44201 15.1962 4.83772C15.865 5.23344 16.4201 5.80238 16.8056 6.48725M21.5732 17.7172V9.15958H21.7727C22.356 9.10761 22.943 9.2011 23.4832 9.43204C24.0235 9.66299 24.5009 10.0245 24.8746 10.4855C25.3285 11.33 25.5427 12.2874 25.4929 13.2497C25.4946 13.611 25.4746 13.972 25.4331 14.3308C25.4177 14.8904 25.2798 15.4392 25.0295 15.937C24.7792 16.4348 24.4229 16.8688 23.9869 17.2072C23.2392 17.5883 22.4074 17.7641 21.5732 17.7172ZM21.5732 17.7172C21.5732 17.7172 21.7926 23.531 14.2523 22.5926M14.2523 22.5926C14.2523 23.646 13.4172 24.5 12.3871 24.5C11.357 24.5 10.522 23.646 10.522 22.5926C10.522 21.5392 11.357 20.6853 12.3871 20.6853C13.4172 20.6853 14.2523 21.5392 14.2523 22.5926ZM1.11653 10.4856C1.49281 10.025 1.97211 9.66404 2.51383 9.43321C3.05554 9.20239 3.64368 9.10853 4.22841 9.15958H4.41792V17.7172C3.58702 17.7628 2.75877 17.587 2.01418 17.2072C1.57817 16.8688 1.2219 16.4348 0.971611 15.937C0.721324 15.4392 0.583379 14.8904 0.56794 14.3309C0.526412 13.9721 0.506429 13.611 0.508098 13.2497C0.454781 12.2883 0.665544 11.3308 1.11653 10.4856Z" stroke="#F8F8F8" stroke-linecap="round" stroke-linejoin="round"/>
</svg>
