<svg width="38" height="38" viewBox="0 0 38 38" fill="none" xmlns="http://www.w3.org/2000/svg">
<path d="M21.2444 36.4376L20.2844 36.4868H17.4536L16.4936 36.4376H16.3335L15.8166 36.4007H15.5336L15.0844 36.3576L14.469 36.2899H14.3151C8.75817 35.6007 3.25042 33.2683 1.90888 26.9852C1.32056 24.3987 1.07029 21.7468 1.16428 19.0959C1.09151 16.5785 1.32502 14.0616 1.85967 11.6005L1.90272 11.5574C2.63503 8.44972 4.05043 5.58818 6.6843 3.85894C10.0443 1.65585 14.229 1.14507 18.0813 1.14507H19.6505C23.509 1.13892 27.6936 1.65585 31.0475 3.85894C33.6814 5.58818 35.0968 8.48049 35.8353 11.5574L35.8721 11.6005C36.4068 14.0616 36.6403 16.5785 36.5675 19.0959C36.6645 21.7469 36.4142 24.3992 35.8229 26.9852C34.4937 33.2683 28.9552 35.5822 23.4167 36.2899H23.269L22.6536 36.3576L22.1982 36.4007H21.9213L21.4043 36.4376H21.2444Z" stroke="#E95322" stroke-width="2.29" stroke-linejoin="round"/>
<circle cx="27.9028" cy="8.78196" r="1.84617" fill="#E95322"/>
</svg>
