<svg width="23" height="23" viewBox="0 0 23 23" fill="none" xmlns="http://www.w3.org/2000/svg">
<path d="M10.8559 11.3226H1.00111M3.53111 13.979L1.58237 12.5002C1.40133 12.3622 1.25455 12.1843 1.15353 11.9803C1.05252 11.7763 1 11.5517 1 11.3241C1 11.0964 1.05252 10.8719 1.15353 10.6679C1.25455 10.4639 1.40133 10.2859 1.58237 10.1479L3.53111 8.66612M17.2772 4.83202V17.8131M7.27475 15.4428C9.08187 22.1683 14.181 21.6352 14.181 21.6352C14.181 21.6352 19.3012 22.1683 21.0872 15.4428C21.789 12.7408 21.789 9.9043 21.0872 7.20231C19.2952 0.47683 14.181 1.00998 14.181 1.00998C14.181 1.00998 9.06078 0.47683 7.27475 7.20231" stroke="#E95322" stroke-width="2" stroke-linecap="round" stroke-linejoin="round"/>
</svg>
