<svg width="19" height="38" viewBox="0 0 19 38" fill="none" xmlns="http://www.w3.org/2000/svg">
<path d="M4.40284 25.1019C3.59339 27.1432 2.97595 29.2631 2.55944 31.4314C2.26757 33.0502 2.03714 35.7215 3.3736 36.8871C3.64144 37.1579 3.97292 37.3486 4.33393 37.4396C4.69494 37.5306 5.07244 37.5186 5.42759 37.4048C5.78274 37.2911 6.10271 37.0796 6.35459 36.7922C6.60647 36.5049 6.78119 36.1523 6.86071 35.7702C7.06041 34.378 6.67633 28.1776 6.63024 26.5749C6.63024 25.5227 6.63024 24.4542 6.63024 23.3372C6.63024 17.3475 6.43057 7.37582 6.41521 1.38613C6.4027 1.20469 6.34129 1.0305 6.23819 0.884594C6.13508 0.73869 5.99456 0.627106 5.83319 0.562487C5.67183 0.497867 5.4963 0.482876 5.32727 0.519802C5.15824 0.556729 5.00274 0.643875 4.87905 0.770769C0.885039 5.8701 -0.820105 12.5075 1.65311 18.7886C2.07079 19.9266 2.74966 20.9376 3.62895 21.7314C4.50824 22.5253 5.56052 23.0769 6.6917 23.3372M13.159 16.2793C12.9746 19.776 12.268 23.2078 11.8071 26.6721C11.3926 28.8899 11.1919 31.146 11.208 33.4063C11.3309 35.1385 11.93 37.4696 13.9578 37.4858C14.5135 37.5035 15.0574 37.3146 15.4939 36.9519C15.9827 36.4318 16.3187 35.7739 16.4617 35.0575C16.7058 33.9988 16.7939 32.9068 16.7228 31.8199C16.7228 30.0877 16.3388 28.4043 16.1084 26.7045C15.6475 23.2402 14.9409 19.8084 14.7566 16.3117M12.5752 1.12682V9.221M15.4017 9.17239V1.07821M10.0713 1.12682V12.216C10.0753 13.3009 10.4861 14.3403 11.2141 15.1075C11.9421 15.8746 12.9282 16.3074 13.9578 16.3117C14.9873 16.3074 15.9735 15.8746 16.7014 15.1075C17.4294 14.3403 17.8402 13.3009 17.8442 12.216V1.12682" stroke="#E95322" stroke-linecap="round" stroke-linejoin="round"/>
</svg>
