<svg width="28" height="27" viewBox="0 0 28 27" fill="none" xmlns="http://www.w3.org/2000/svg">
<path d="M22.6609 5.289C22.9514 5.41154 23.2354 5.54907 23.5118 5.70099C23.6256 5.76174 23.7361 5.82858 23.8428 5.9012C26.2992 7.44125 26.923 10.402 27 12.9431C27 13.3281 27 13.7131 27 14.0981V25.7024L21.9948 22.8109H18.9493C17.9272 22.9326 16.8986 22.9931 15.8692 22.9919C14.7667 23.001 13.6647 22.9405 12.5697 22.8109C9.8477 22.4798 7.17945 21.6251 5.81266 19.6538M22.0948 4.52283C21.5089 3.7175 20.7447 3.05864 19.8619 2.59776C18.2147 1.76791 16.4191 1.27323 14.5794 1.14241C13.7054 1.0577 12.7392 1.00385 11.7343 1C9.28561 1 6.63287 1.2695 4.5076 2.43609C4.39372 2.49684 4.28305 2.56368 4.17635 2.6363C1.71997 4.17635 1.09637 7.13711 1.01936 9.6782C1.01936 10.0632 1 10.4482 1 10.8332V22.4413L6.00516 19.5499C6.00516 19.5499 11.1452 19.727 12.1462 19.7308C13.2487 19.7399 14.3507 19.6795 15.4457 19.5499C18.9878 19.1225 22.4183 17.7981 23.0728 14.2983C23.3249 12.9408 23.4537 11.5632 23.4578 10.1825C23.4578 8.09957 23.119 5.97817 22.0948 4.52283Z" stroke="#E95322" stroke-width="2" stroke-linecap="round" stroke-linejoin="round"/>
</svg>
