<svg width="28" height="38" viewBox="0 0 28 38" fill="none" xmlns="http://www.w3.org/2000/svg">
<path d="M14.9248 34.7226C14.8707 35.1767 14.652 35.5952 14.3101 35.8988C13.9681 36.2024 13.5267 36.37 13.0695 36.37C12.6122 36.37 12.1709 36.2024 11.829 35.8988C11.4871 35.5952 11.2684 35.1767 11.2143 34.7226M1.74108 23.5595C2.55536 21.4985 2.85961 19.2713 2.62801 17.0674C2.52817 16.1625 2.54935 15.2481 2.69099 14.3487C3.12268 11.7781 4.45155 9.4438 6.44148 7.76018C8.43141 6.07656 10.9536 5.15269 13.5602 5.15269C16.1669 5.15269 18.6891 6.07656 20.679 7.76018C22.6689 9.4438 23.9977 11.7781 24.4294 14.3487C24.5711 15.2481 24.5923 16.1625 24.4924 17.0674C24.2662 19.2713 24.5703 21.4971 25.3794 23.5595C25.7096 24.3388 25.8536 25.1844 25.8001 26.029C25.7467 26.8737 25.4971 27.6942 25.0713 28.4256C24.6455 29.157 24.0551 29.7792 23.347 30.2428C22.6389 30.7063 21.8325 30.9985 20.9918 31.0961C16.0546 31.6489 11.0711 31.6489 6.1339 31.0961C5.29324 30.9982 4.48692 30.7059 3.77877 30.2424C3.07061 29.7789 2.48005 29.1569 2.05385 28.4257C1.62766 27.6945 1.37753 26.8741 1.32324 26.0295C1.26895 25.1849 1.41201 24.3393 1.74108 23.5595ZM15.5231 3.26962C15.5231 4.35078 14.6466 5.22724 13.5655 5.22724C12.4843 5.22724 11.6078 4.35078 11.6078 3.26962C11.6078 2.18847 12.4843 1.31201 13.5655 1.31201C14.6466 1.31201 15.5231 2.18847 15.5231 3.26962Z" stroke="#E95322" stroke-width="2.62415" stroke-linecap="round" stroke-linejoin="round"/>
</svg>
