<svg width="35" height="43" viewBox="0 0 35 43" fill="none" xmlns="http://www.w3.org/2000/svg">
<path d="M8.08832 36.4831L7.72799 38.6276C7.68029 38.9341 7.69954 39.2473 7.78436 39.5457C7.86917 39.8441 8.01758 40.1207 8.21942 40.3564C8.42125 40.5922 8.67172 40.7816 8.95369 40.9117C9.23566 41.0417 9.54245 41.1093 9.85303 41.1099H14.581C14.9314 41.115 15.2721 40.9949 15.5417 40.7714C15.8113 40.5479 15.9921 40.2356 16.0516 39.8908L18.0149 28.0962H24.4268C25.6425 28.092 26.844 27.8354 27.9552 27.3427C29.0663 26.85 30.0628 26.1321 30.8814 25.2344C31.7 24.3367 32.3228 23.2788 32.7104 22.128C33.098 20.9771 33.2418 19.7583 33.1328 18.549C33.0074 17.209 32.5645 15.9181 31.8409 14.7828C31.1172 13.6476 30.1335 12.7006 28.9709 12.0201M9.2133 36.4831C9.59509 36.484 9.96457 36.3482 10.2546 36.1002C10.5447 35.8523 10.7362 35.5087 10.7942 35.1318L13.0001 21.1781H19.1031C20.5011 21.174 21.8824 20.8751 23.1566 20.3009C24.4308 19.7266 25.5693 18.8901 26.4974 17.846C27.4255 16.8018 28.1223 15.5737 28.5422 14.2419C28.9621 12.9102 29.0957 11.5049 28.9342 10.118C28.5992 7.68122 27.3846 5.45053 25.5187 3.84524C23.6528 2.23996 21.2641 1.37063 18.8016 1.40065H10.3236C9.24441 1.40123 8.20074 1.78602 7.38002 2.48594C6.5593 3.18587 6.01526 4.15506 5.8456 5.21954C5.8456 5.21954 2.73526 25.0925 1.43377 33.5381C1.37386 33.9008 1.39389 34.2721 1.49247 34.6262C1.59106 34.9803 1.76585 35.3087 2.00459 35.5884C2.24333 35.8681 2.54028 36.0924 2.87476 36.2457C3.20924 36.399 3.57319 36.4775 3.94118 36.4758L9.2133 36.4831ZM15.1766 6.97477H17.4414C18.5261 6.95477 19.5801 7.33465 20.4021 8.04184C21.2241 8.74903 21.7564 9.73395 21.8973 10.8084C21.9665 11.4175 21.9064 12.0343 21.721 12.6187C21.5355 13.2031 21.2288 13.7418 20.8209 14.1998C20.4129 14.6579 19.9129 15.0249 19.3534 15.277C18.7939 15.529 18.1875 15.6605 17.5737 15.6628H13.831L15.1766 6.97477Z" stroke="#E95322" stroke-width="2.8" stroke-linecap="round" stroke-linejoin="round"/>
</svg>
