<svg width="20" height="28" viewBox="0 0 20 28" fill="none" xmlns="http://www.w3.org/2000/svg">
<path d="M9.76925 9.79566C12.1981 9.79566 14.1671 7.82668 14.1671 5.39783C14.1671 2.96898 12.1981 1 9.76925 1C7.34039 1 5.37142 2.96898 5.37142 5.39783C5.37142 7.82668 7.34039 9.79566 9.76925 9.79566Z" stroke="#E95322" stroke-width="2" stroke-linecap="round" stroke-linejoin="round"/>
<path d="M17.8651 22.6412C15.7542 27.383 9.74193 26.9922 9.74193 26.9922C9.74193 26.9922 3.72568 27.3674 1.61864 22.6412C1.21084 21.732 1 20.7468 1 19.7504C1 18.7539 1.21084 17.7688 1.61864 16.8596C3.72568 12.1178 9.74193 12.5086 9.74193 12.5086C9.74193 12.5086 15.7542 12.1334 17.8651 16.8596C18.2729 17.7688 18.4838 18.7539 18.4838 19.7504C18.4838 20.7468 18.2729 21.732 17.8651 22.6412Z" stroke="#E95322" stroke-width="2" stroke-linecap="round" stroke-linejoin="round"/>
</svg>
