<svg width="209" height="186" viewBox="0 0 209 186" fill="none" xmlns="http://www.w3.org/2000/svg">
<path d="M190.668 94.1298C204.545 79.3019 208.946 56.3072 201.524 37.4033C194.102 18.4993 175.232 4.64111 154.973 3.21626C124.265 1.05629 92.3053 30.168 91.034 60.9273C90.723 68.4497 92.7929 76.9812 99.3326 80.7116C105.419 84.1836 113.728 81.9617 118.294 76.646C122.86 71.3304 124.009 63.6685 122.57 56.8102C121.131 49.9519 117.388 43.7862 113.09 38.2515C98.5816 19.5689 78.4579 1.44079 53.2164 3.21626C32.9579 4.64147 14.0879 18.4993 6.6656 37.4033C-0.756661 56.3072 3.64401 79.3019 17.5213 94.1298" stroke="#FF642F" stroke-width="6.18942" stroke-miterlimit="10" stroke-linecap="round" stroke-linejoin="round"/>
<path d="M132.885 158.875L112.351 178.85C107.833 183.246 100.59 183.082 96.2759 178.484C90.4836 172.313 82.6919 164.12 77.3003 158.875" stroke="#FF642F" stroke-width="6.18942" stroke-miterlimit="10" stroke-linecap="round" stroke-linejoin="round"/>
<path d="M59.2669 139.728C67.7911 131.786 65.7027 115.689 54.6022 103.775C43.5017 91.8599 27.5927 88.6392 19.0684 96.581C10.5441 104.523 12.6325 120.62 23.733 132.534C34.8335 144.449 50.7426 147.67 59.2669 139.728Z" stroke="#FF642F" stroke-width="6.18942" stroke-miterlimit="10" stroke-linecap="round" stroke-linejoin="round"/>
<path d="M186.316 100.131L157.945 133.11" stroke="#FF642F" stroke-width="6.18942" stroke-miterlimit="10" stroke-linecap="round" stroke-linejoin="round"/>
<path d="M146.825 118.213L168.197 95.5762C178.902 85.999 204.883 105.644 193.239 120.84L172.076 143.256" stroke="#FF642F" stroke-width="6.18942" stroke-miterlimit="10" stroke-linecap="round" stroke-linejoin="round"/>
</svg>
