<svg width="27" height="28" viewBox="0 0 27 28" fill="none" xmlns="http://www.w3.org/2000/svg">
<path d="M22.132 15.391L23.8356 16.3559C24.4557 16.7084 24.9082 17.2883 25.0937 17.9682C25.2793 18.6482 25.1828 19.3726 24.8254 19.9827L24.222 21.0095C24.0444 21.3113 23.8081 21.5757 23.5264 21.7877C23.2448 21.9997 22.9234 22.1552 22.5807 22.2451C22.2379 22.3351 21.8805 22.3578 21.5288 22.312C21.1771 22.2662 20.838 22.1528 20.5309 21.9782L18.8352 21.0173C18.0942 21.6027 17.2655 22.072 16.3784 22.4084V24.3458C16.3784 25.0498 16.0938 25.7248 15.5872 26.2226C15.0806 26.7203 14.3936 27 13.6772 27H12.4704C11.754 27 11.0669 26.7203 10.5604 26.2226C10.0538 25.7248 9.76915 25.0498 9.76915 24.3458V22.4084C8.88209 22.072 8.05337 21.6027 7.31237 21.0173L5.70735 21.9279C5.38817 22.1091 5.03579 22.2267 4.6703 22.274C4.30482 22.3212 3.9334 22.2972 3.57737 22.2033C3.22135 22.1094 2.88769 21.9473 2.59545 21.7265C2.30321 21.5057 2.05814 21.2305 1.87429 20.9165L1.37741 20.0719C1.19271 19.7582 1.07274 19.4118 1.02431 19.0525C0.975882 18.6933 0.999959 18.3282 1.09517 17.9781C1.19039 17.628 1.35485 17.2997 1.5792 17.012C1.80356 16.7244 2.08338 16.483 2.4027 16.3017L4.01168 15.391C3.85394 14.4701 3.85394 13.5298 4.01168 12.609L2.4027 11.6983C2.08338 11.517 1.80356 11.2756 1.5792 10.988C1.35485 10.7003 1.19039 10.3721 1.09517 10.022C0.999959 9.6719 0.975882 9.30672 1.02431 8.94745C1.07274 8.58819 1.19271 8.24182 1.37741 7.92814L1.87429 7.08345C2.05814 6.7695 2.30321 6.49427 2.59545 6.27349C2.88769 6.0527 3.22135 5.89064 3.57737 5.7967C3.9334 5.70277 4.30482 5.67878 4.6703 5.72603C5.03579 5.77329 5.38817 5.89085 5.70735 6.07208L7.31237 6.9827C8.05337 6.39726 8.88209 5.92799 9.76915 5.59161V3.6542C9.76915 2.95024 10.0538 2.27519 10.5604 1.77742C11.0669 1.27965 11.754 1 12.4704 1H13.6772C14.3936 1 15.0806 1.27965 15.5872 1.77742C16.0938 2.27519 16.3784 2.95024 16.3784 3.6542V5.59161C17.2655 5.92799 18.0942 6.39726 18.8352 6.9827L20.5309 6.02175C20.838 5.84719 21.1771 5.7338 21.5288 5.688C21.8805 5.64221 22.2379 5.66493 22.5807 5.75489C22.9234 5.84484 23.2448 6.00028 23.5264 6.21228C23.8081 6.42428 24.0444 6.68869 24.222 6.99046L24.8254 8.01725C25.1828 8.62735 25.2793 9.35192 25.0937 10.0319C24.9082 10.7118 24.4557 11.2916 23.8356 11.6441L22.132 12.609C22.295 13.5294 22.295 14.4706 22.132 15.391Z" stroke="#E95322" stroke-width="2" stroke-linecap="round" stroke-linejoin="round"/>
</svg>
