<svg width="34" height="38" viewBox="0 0 34 38" fill="none" xmlns="http://www.w3.org/2000/svg">
<path d="M7.39473 20.5698C8.75861 20.9956 10.1635 21.2872 11.588 21.4405C14.5956 21.7574 17.6252 21.8321 20.6456 21.6635C24.5842 21.7618 28.4717 20.7859 31.8627 18.8482C32.2729 19.1216 32.6116 19.4835 32.8518 19.9053C33.092 20.3271 33.2271 20.7973 33.2465 21.2783C33.5279 24.5209 32.89 27.7766 31.4014 30.6957M21.3375 37.3181C20.7295 37.3181 20.1005 37.4595 19.4715 37.5C18.3602 37.5 17.249 37.5 16.1378 37.5C11.2945 37.3582 6.09485 35.9811 3.6837 31.4245C1.58705 27.6374 0.853202 22.3925 3.13855 18.5649M15.7395 19.4357C16.0214 19.1497 16.2187 18.7959 16.3109 18.4112C16.4031 18.0265 16.3868 17.6248 16.2636 17.2483C16.1332 16.8779 15.9129 16.5431 15.6211 16.2718C15.3293 16.0005 14.9745 15.8006 14.5863 15.6889C13.1844 15.5193 11.7655 15.8354 10.5817 16.5803C8.84149 17.2892 6.78675 18.8483 4.85783 18.8888C0.664535 18.8888 -1.43208 10.3829 2.86606 9.10707C3.32604 8.95999 3.8227 8.95928 4.28312 9.1051C4.74354 9.25091 5.14338 9.53584 5.42391 9.91744C6.26257 11.1933 6.011 12.6714 7.35285 13.7245C7.97892 14.2016 8.68926 14.5654 9.4495 14.7979C10.7495 15.2312 12.1031 15.4971 13.4751 15.588M28.3822 14.6559C27.064 14.7176 25.7434 14.595 24.4615 14.2915C23.6815 14.1251 22.9369 13.8306 22.2601 13.4209C20.7924 12.469 20.8763 10.9297 19.8908 9.71463C19.5569 9.35392 19.1132 9.10503 18.6235 9.00315C18.1338 8.90127 17.6232 8.95157 17.1652 9.14752C12.9719 10.8892 15.9282 19.4153 20.2892 18.9293C22.2391 18.7065 24.168 16.9042 25.8662 15.9929C27.0037 15.1207 28.4187 14.6553 29.8708 14.6762C30.2798 14.7495 30.6647 14.9165 30.9931 15.1632C31.3214 15.4099 31.5837 15.7294 31.7579 16.0942C31.9269 16.467 31.9869 16.8774 31.9314 17.2809C31.876 17.6843 31.7072 18.0651 31.4433 18.3824C30.908 19.0689 30.2093 19.6207 29.4064 19.9908C28.6034 20.361 27.7199 20.5387 26.8307 20.509C25.177 20.2767 23.6772 19.4435 22.6374 18.1797M29.745 31.1006C28.3867 31.5155 26.9756 31.7474 25.5517 31.7894C24.7704 31.8208 23.9895 31.7176 23.2454 31.4853C21.61 30.9385 21.3165 29.4602 20.0795 28.5692C19.6861 28.2941 19.2128 28.1459 18.7271 28.1459C18.2414 28.1459 17.7682 28.2941 17.3748 28.5692C13.8524 31.2221 18.8006 38.5734 22.7842 37.0748C24.5663 36.4065 25.9082 34.2395 27.292 33.0244C28.2774 32.1334 29.2838 30.9991 30.7304 30.8371C31.1284 30.8266 31.5238 30.9033 31.8868 31.0611C32.2499 31.2189 32.5713 31.4541 32.8271 31.7488C33.0745 32.0627 33.2302 32.4349 33.2782 32.8267C33.3261 33.2185 33.2645 33.6152 33.0997 33.9762C32.764 34.7519 32.2402 35.4384 31.5725 35.9777C30.9047 36.5169 30.1126 36.8931 29.2628 37.0748C28.4523 37.1775 27.6286 37.1233 26.8402 36.9146C26.0517 36.7059 25.3143 36.3474 24.6712 35.86M14.6282 2.56572C14.196 3.64885 13.6027 4.66535 12.867 5.58321C12.4355 6.14188 11.9113 6.62815 11.3155 7.0215C9.97366 7.83157 8.75759 7.18352 7.3738 7.5278C6.9281 7.6578 6.53986 7.92698 6.27032 8.29366C6.00079 8.66035 5.86526 9.10367 5.88514 9.55297C5.75934 13.6033 13.8944 14.4131 15.1104 10.7475C15.3286 8.88717 15.2223 7.00466 14.7959 5.17827C14.4976 3.93267 14.6454 2.626 15.2153 1.47204C15.4252 1.17489 15.7064 0.931331 16.035 0.762047C16.3636 0.592762 16.7298 0.502828 17.1022 0.5C17.4714 0.519196 17.8288 0.632688 18.1381 0.8283C18.4474 1.02391 18.6976 1.29479 18.8634 1.61395C19.225 2.31182 19.4134 3.0817 19.4134 3.86211C19.4134 4.64251 19.225 5.4119 18.8634 6.10978C18.0826 7.37077 16.8159 8.28116 15.341 8.64125" stroke="#E95322" stroke-linecap="round" stroke-linejoin="round"/>
</svg>
