<svg width="38" height="38" viewBox="0 0 38 38" fill="none" xmlns="http://www.w3.org/2000/svg">
<path d="M2.69294 12.5738L2.3994 12.0774C2.19331 11.73 2.11954 11.3222 2.19121 10.9264C2.26288 10.5306 2.47536 10.1724 2.79078 9.91601L3.23108 9.54783C3.55458 9.29838 3.77009 8.93831 3.83443 8.53943L3.93227 7.97895C4.00127 7.59602 4.19975 7.24707 4.49564 6.98853C4.79153 6.73 5.16755 6.57716 5.56298 6.5543H6.15003C6.5632 6.56571 6.96538 6.42265 7.27522 6.15406L7.71552 5.78588C8.0291 5.52934 8.42436 5.38878 8.83255 5.38878C9.24073 5.38878 9.636 5.52934 9.94958 5.78588M24.6259 22.4033C24.3032 23.0181 23.7568 23.491 23.0951 23.7283C22.4334 23.9656 21.705 23.95 21.0547 23.6842L20.0926 23.332C19.4007 23.0966 18.6482 23.0966 17.9564 23.332L16.9779 23.6842C16.3196 23.9347 15.5918 23.9467 14.9253 23.7178C14.2587 23.4889 13.6972 23.0342 13.3415 22.4354M9.94959 6.10599L10.129 5.0972C10.2559 4.39055 10.6332 3.75063 11.1942 3.29068C11.7552 2.83074 12.4638 2.58067 13.1947 2.58402H14.2383C14.9672 2.58108 15.6716 2.32568 16.2278 1.86329L17.0268 1.20705C17.5885 0.750165 18.295 0.5 19.0245 0.5C19.7539 0.5 20.4604 0.750165 21.0221 1.20705L21.8211 1.86329C22.3759 2.32811 23.0813 2.58385 23.8106 2.58402H24.8542C25.5834 2.58694 26.2887 2.83964 26.8484 3.2985C27.4081 3.75736 27.787 4.39333 27.92 5.0972L28.0993 6.10599C28.2159 6.81579 28.5929 7.45904 29.1593 7.91485L29.942 8.57148C30.3329 8.88558 30.6386 9.28951 30.832 9.74756C31.0255 10.2056 31.1007 10.7034 31.0509 11.1968M7.01431 11.309C6.94243 10.8005 7.00351 10.2824 7.1918 9.80345C7.38008 9.32454 7.68937 8.90069 8.09058 8.57148M9.31361 25.0607C9.31361 25.0607 14.7928 25.0608 15.1189 37.5M17.8748 30.2638C17.2225 24.7726 14.2383 23.3801 14.2383 23.3801M23.99 20.018L23.8758 20.6261C23.8035 21.0459 23.8828 21.4776 24.1002 21.846C24.3176 22.2144 24.6593 22.4962 25.0662 22.6433L25.637 22.8356C26.043 22.991 26.3865 23.272 26.6154 23.6361L26.9089 24.1645C27.1318 24.5287 27.4752 24.8068 27.8818 24.9525C28.2884 25.0982 28.7335 25.1026 29.143 24.965L29.73 24.7567C30.1357 24.6123 30.5801 24.6123 30.9857 24.7567L31.5727 24.965C31.9796 25.1047 32.4233 25.1008 32.8278 24.9548C33.2324 24.8088 33.5727 24.5297 33.7905 24.1645L34.1003 23.6361C34.3183 23.2691 34.6579 22.9865 35.0625 22.8356L35.6495 22.6433C36.0564 22.4962 36.3981 22.2144 36.6155 21.846C36.8329 21.4776 36.9123 21.0459 36.8399 20.6261L36.7258 20.018C36.6448 19.5986 36.7262 19.1647 36.9541 18.8013L37.2476 18.2728C37.4676 17.9058 37.5474 17.474 37.4727 17.0545C37.398 16.6351 37.1737 16.2555 36.8399 15.9836L36.367 15.5994C36.0367 15.3259 35.8169 14.9456 35.7474 14.5269L35.6332 13.9344C35.5572 13.5158 35.3348 13.1366 35.0044 12.8619C34.6739 12.5871 34.2561 12.4342 33.8231 12.4296H33.2035C32.7688 12.4343 32.3467 12.2867 32.013 12.0133L31.5401 11.6131C31.2086 11.3408 30.7901 11.1918 30.3579 11.1918C29.9256 11.1918 29.5072 11.3408 29.1756 11.6131L28.7027 12.0133C28.3676 12.2843 27.9464 12.4316 27.5123 12.4296H26.8926C26.4587 12.4311 26.0393 12.5827 25.7081 12.858C25.377 13.1332 25.1555 13.5145 25.0825 13.9344L24.9684 14.5269C24.8989 14.9456 24.6791 15.3259 24.3487 15.5994L23.8758 15.9836M35.3071 12.5738L35.6006 12.0774C35.8067 11.73 35.8805 11.3222 35.8088 10.9264C35.7371 10.5306 35.5246 10.1724 35.2092 9.91601L34.7689 9.54783C34.4596 9.2865 34.2474 8.93195 34.1656 8.53943L34.0677 7.97895C34.0015 7.5948 33.8038 7.24444 33.5074 6.98541C33.2109 6.72638 32.8334 6.57432 32.437 6.5543H31.85C31.4424 6.56165 31.0468 6.41886 30.7411 6.15406L30.2845 5.78588C29.9848 5.52038 29.5955 5.37314 29.1919 5.37314C28.7883 5.37314 28.399 5.52038 28.0993 5.78588M28.6864 25.0607C28.6864 25.0607 23.2072 25.0608 22.8974 37.5M20.1252 30.2638C20.7775 24.7726 23.7617 23.3801 23.7617 23.3801M8.84071 11.6131L9.31361 12.0133C9.64303 12.2831 10.0587 12.4305 10.4877 12.4296H11.1074C11.5424 12.4335 11.9624 12.5858 12.2956 12.8603C12.6287 13.1348 12.8544 13.5145 12.9338 13.9344L13.0316 14.5269C13.1081 14.9469 13.3334 15.3267 13.6676 15.5994L14.1405 15.9836C14.4715 16.2574 14.6938 16.6367 14.7683 17.0553C14.8429 17.4739 14.7649 17.905 14.5482 18.2728L14.2383 18.8013C14.0232 19.1694 13.9481 19.6006 14.0263 20.018L14.1242 20.6261C14.1998 21.0462 14.1219 21.4792 13.9041 21.8483C13.6863 22.2174 13.3426 22.4988 12.9338 22.6433L12.363 22.8356C11.9585 22.9865 11.6189 23.2691 11.4009 23.6361L11.0911 24.1645C10.8704 24.5309 10.5272 24.8108 10.1198 24.9568C9.7125 25.1027 9.26624 25.1057 8.85701 24.965L8.28625 24.7567C7.87498 24.6125 7.42558 24.6125 7.01431 24.7567L6.44357 24.965C6.03434 25.1057 5.58808 25.1027 5.18076 24.9568C4.77343 24.8108 4.4302 24.5309 4.20949 24.1645L3.89968 23.6361C3.68168 23.2691 3.34207 22.9865 2.93754 22.8356L2.35049 22.6433C1.9447 22.4959 1.60469 22.2132 1.39002 21.8444C1.17535 21.4756 1.09971 21.0442 1.17638 20.6261L1.27424 20.018C1.35248 19.6006 1.27736 19.1694 1.06224 18.8013L0.752403 18.2728C0.532395 17.9058 0.452595 17.474 0.52729 17.0545C0.601985 16.6351 0.8263 16.2555 1.16008 15.9836L1.633 15.5994C1.96199 15.3224 2.18608 14.9445 2.26897 14.5269L2.36681 13.9344C2.44622 13.5145 2.67184 13.1348 3.00502 12.8603C3.33821 12.5858 3.75823 12.4335 4.19319 12.4296H4.81287C5.24189 12.4305 5.65755 12.2831 5.98698 12.0133L6.45987 11.6131C6.79536 11.3425 7.21609 11.1945 7.65028 11.1945C8.08447 11.1945 8.50522 11.3425 8.84071 11.6131Z" stroke="#E95322" stroke-linecap="round" stroke-linejoin="round"/>
</svg>
