<svg width="18" height="16" viewBox="0 0 18 16" fill="none" xmlns="http://www.w3.org/2000/svg">
<path d="M5.13808 12.8779C4.00932 12.2606 3.05812 11.3636 2.37572 10.273C0.853665 7.8449 2.80391 5.65159 4.88673 4.47206C5.96749 3.88797 7.15996 3.54013 8.38526 3.45156C9.61056 3.36298 10.8407 3.53566 11.9943 3.95824M13.8947 4.99137C14.5691 5.50173 15.1329 6.14359 15.5522 6.87808L15.5743 6.91955C17.2842 9.97472 14.0163 12.4442 11.4307 13.3696C9.9551 13.896 8.35484 13.9643 6.83968 13.5657M15.392 3.01355C15.392 3.01355 16.6454 3.9361 17.1847 4.49696M0.690674 4.49696C0.690674 4.49696 4.38397 0.69043 8.93909 0.69043C10.6247 0.729951 12.2753 1.17935 13.7483 1.99978M6.98887 10.3393C6.64884 9.96024 6.42594 9.49078 6.3471 8.98769C6.26827 8.48459 6.33687 7.96939 6.54464 7.50447C6.7524 7.03955 7.09048 6.64483 7.51787 6.36797C7.94526 6.0911 8.4437 5.944 8.95293 5.94444C9.37126 5.9434 9.78356 6.04383 10.1545 6.2372M11.5882 8.57144C11.5875 9.27013 11.3096 9.93995 10.8156 10.434C10.3215 10.9281 9.65162 11.2059 8.95292 11.2067M14.5632 1.20145L4.08287 14.4304" stroke="#E95322" stroke-width="1.38118" stroke-linecap="round" stroke-linejoin="round"/>
</svg>
