<svg width="38" height="38" viewBox="0 0 38 38" fill="none" xmlns="http://www.w3.org/2000/svg">
<path d="M35.2775 24.7312C34.4081 26.9302 33.096 28.9276 31.4223 30.5998C28.6643 33.3572 25.0536 35.1026 21.1767 35.5527C17.2998 36.0027 13.3844 35.131 10.0663 33.0789C9.86122 32.9459 9.61948 32.8806 9.37518 32.8922C9.13088 32.9038 8.89637 32.9918 8.70485 33.1437C7.097 34.4383 2.94123 37.5453 1.51491 36.1213C0.0885875 34.6972 3.14871 30.4898 4.44537 28.8715C4.59262 28.6801 4.67667 28.4477 4.68596 28.2066C4.69525 27.9654 4.6293 27.7273 4.49721 27.5251C2.32804 24.0436 1.47083 19.9048 2.07903 15.8498C2.68724 11.7948 4.72114 8.08837 7.81664 5.39395C10.9745 2.65392 15.0175 1.14502 19.2013 1.14502C23.385 1.14502 27.428 2.65392 30.5859 5.39395C32.3668 6.95192 33.8085 8.85824 34.8218 10.9949C35.835 13.1316 36.3982 15.4531 36.4766 17.8159C36.555 20.1786 36.1469 22.5323 35.2775 24.7312Z" stroke="#E95322" stroke-width="2.29" stroke-linecap="round" stroke-linejoin="round"/>
</svg>
